#!OML:ASF X:\für Bonn\!DataBase\2005_08_11_Bastian_Final\c3d\Bastian.ASF
:FULLY-SPECIFIED
:DEGREES
32
root -1.33699 14.8743 2.26555 165.897 -2.31743 -171.629
lowerback 20.6427 -1.09676 4.53695
upperback 5.67525 -1.47518 2.26011
thorax -5.37826 -1.22544 0.253728
lowerneck -6.96106 -6.43121 -3.9021
upperneck -4.25424 -7.88457 7.95369
head 0.364361 -3.68567 2.99449
rclavicle 2.5345e-015 2.14687e-014
rhumerus 73.9492 16.1347 13.3805
rradius 40.029
rwrist -66.7457
rhand -46.8659 -9.99862
rfingers 7.12502
rthumb -19.5783 -39.0328
lclavicle 2.5345e-015 2.14687e-014
lhumerus 75.0606 -22.428 -41.6263
lradius 30.84
lwrist 33.6843
lhand -39.9783 19.9739
lfingers 7.12502
lthumb -12.9468 49.5522
rfemur -19.5641 -11.6837 29.8989
rtibia 74.0762
rfoot -34.7954 -7.34265
rtoes -1.56916
lfemur -20.8395 0.555288 -11.1381
ltibia 77.7949
lfoot -35.5408 -3.57695
ltoes -13.6055
33
root -1.34517 14.7041 2.26374 165.814 -2.30436 -171.516
lowerback 20.9465 -1.11834 4.71279
upperback 5.68104 -1.4645 2.28822
thorax -5.53014 -1.23116 0.192373
lowerneck -6.86069 -6.44605 -3.87168
upperneck -4.38024 -7.89878 7.9362
head 0.305431 -3.69563 2.98775
rclavicle -8.52289e-015 1.59028e-014
rhumerus 73.8127 15.879 13.4522
rradius 40.0473
rwrist -66.7446
rhand -46.9263 -10.0442
rfingers 7.12502
rthumb -19.6364 -39.0725
lclavicle -8.52289e-015 1.59028e-014
lhumerus 74.8251 -22.2077 -41.7439
lradius 30.7851
lwrist 33.6361
lhand -39.9531 19.9425
lfingers 7.12502
lthumb -12.9226 49.5224
rfemur -20.5476 -11.7397 30.0424
rtibia 76.1541
rfoot -35.6129 -7.63722
rtoes -1.72914
lfemur -21.8837 0.729625 -10.9952
ltibia 80.0237
lfoot -36.2753 -3.81525
ltoes -13.6182
34
root -1.35202 14.5321 2.26063 165.698 -2.28317 -171.425
lowerback 21.2728 -1.13279 4.86212
upperback 5.70961 -1.45394 2.30549
thorax -5.66834 -1.23859 0.134634
lowerneck -6.81778 -6.46084 -3.84626
upperneck -4.48273 -7.91041 7.95363
head 0.265736 -3.70164 2.99163
rclavicle -8.57259e-015 -5.96354e-016
rhumerus 73.6647 15.6368 13.4291
rradius 40.0489
rwrist -66.7002
rhand -46.988 -9.98955
rfingers 7.12502
rthumb -19.6957 -39.0118
lclavicle -8.57259e-015 -5.96354e-016
lhumerus 74.6035 -21.9722 -41.8915
lradius 30.7241
lwrist 33.6634
lhand -39.9727 19.9582
lfingers 7.12502
lthumb -12.9414 49.5369
rfemur -21.4806 -11.7551 30.1733
rtibia 78.2361
rfoot -36.4514 -7.92843
rtoes -1.83291
lfemur -22.8796 0.893477 -10.8752
ltibia 82.2477
lfoot -37.0125 -3.97003
ltoes -13.8158
35
root -1.35971 14.3567 2.25626 165.603 -2.25104 -171.318
lowerback 21.5795 -1.14762 5.0309
upperback 5.72055 -1.43516 2.33299
thorax -5.81484 -1.2413 0.0745121
lowerneck -6.70135 -6.46932 -3.87295
upperneck -4.62031 -7.91017 8.0109
head 0.205927 -3.70304 3.02181
rclavicle -6.80837e-015 1.98785e-016
rhumerus 73.528 15.446 13.4163
rradius 40.049
rwrist -66.6826
rhand -47.0633 -9.92529
rfingers 7.12502
rthumb -19.7681 -38.9401
lclavicle -6.80837e-015 1.98785e-016
lhumerus 74.4123 -21.7767 -42.0407
lradius 30.6629
lwrist 33.6701
lhand -40.0664 20.0434
lfingers 7.12502
lthumb -13.0318 49.6164
rfemur -22.4393 -11.7695 30.3332
rtibia 80.3244
rfoot -37.2453 -8.22732
rtoes -1.93735
lfemur -23.8929 1.07895 -10.7331
ltibia 84.483
lfoot -37.7306 -4.17829
ltoes -13.7792
36
root -1.36679 14.1789 2.25164 165.502 -2.23582 -171.229
lowerback 21.8992 -1.1698 5.16993
upperback 5.73614 -1.43195 2.347
thorax -5.9632 -1.25165 0.0210729
lowerneck -6.60423 -6.46255 -3.91879
upperneck -4.75295 -7.88478 8.14139
head 0.153945 -3.68971 3.08051
rclavicle 2.37051e-014 5.56597e-015
rhumerus 73.3898 15.314 13.205
rradius 40.0214
rwrist -66.5339
rhand -47.1557 -9.80154
rfingers 7.12502
rthumb -19.857 -38.8071
lclavicle 2.37051e-014 5.56597e-015
lhumerus 74.289 -21.6019 -42.3933
lradius 30.6367
lwrist 33.916
lhand -40.2522 20.2654
lfingers 7.12502
lthumb -13.2109 49.8268
rfemur -23.3976 -11.7973 30.4864
rtibia 82.4078
rfoot -38.0191 -8.61479
rtoes -2.10422
lfemur -24.8958 1.24165 -10.6254
ltibia 86.7005
lfoot -38.4711 -4.29138
ltoes -14.2059
37
root -1.37378 14.0021 2.24544 165.397 -2.21596 -171.142
lowerback 22.2195 -1.17985 5.29079
upperback 5.76026 -1.41796 2.37932
thorax -6.10093 -1.25782 -0.00525348
lowerneck -6.4866 -6.45214 -4.01963
upperneck -4.92092 -7.84715 8.31804
head 0.0910114 -3.66944 3.16681
rclavicle -3.70236e-015 -2.32578e-014
rhumerus 73.2501 15.2144 12.9032
rradius 39.939
rwrist -66.2577
rhand -47.2134 -9.71756
rfingers 7.12502
rthumb -19.9124 -38.7174
lclavicle -3.70236e-015 -2.32578e-014
lhumerus 74.1902 -21.4405 -42.7679
lradius 30.6302
lwrist 34.229
lhand -40.4975 20.538
lfingers 7.12502
lthumb -13.4473 50.0839
rfemur -24.3182 -11.8222 30.6532
rtibia 84.4664
rfoot -38.773 -9.09168
rtoes -2.50139
lfemur -25.8727 1.38155 -10.5188
ltibia 88.8954
lfoot -39.1784 -4.45092
ltoes -14.3029
38
root -1.38023 13.8247 2.23826 165.316 -2.16765 -171.052
lowerback 22.5265 -1.1752 5.40514
upperback 5.76574 -1.3809 2.40799
thorax -6.2511 -1.25133 -0.0382254
lowerneck -6.34042 -6.44912 -4.08159
upperneck -5.09231 -7.82255 8.48224
head 0.0203331 -3.65737 3.24266
rclavicle -1.25731e-014 -1.59028e-015
rhumerus 73.063 15.1732 12.2972
rradius 39.7704
rwrist -65.7387
rhand -47.1678 -9.61595
rfingers 7.12502
rthumb -19.8686 -38.6203
lclavicle -1.25731e-014 -1.59028e-015
lhumerus 74.0248 -21.2772 -42.8977
lradius 30.6376
lwrist 34.2912
lhand -40.6875 20.8235
lfingers 7.12502
lthumb -13.6305 50.3572
rfemur -25.2551 -11.7909 30.854
rtibia 86.5015
rfoot -39.5067 -9.54443
rtoes -2.78535
lfemur -26.85 1.57911 -10.3934
ltibia 91.0719
lfoot -39.8989 -4.58024
ltoes -14.6366
39
root -1.38749 13.647 2.22971 165.215 -2.14812 -170.987
lowerback 22.8375 -1.18067 5.49714
upperback 5.78524 -1.36482 2.43613
thorax -6.38812 -1.2558 -0.0536043
lowerneck -6.19738 -6.43909 -4.20001
upperneck -5.28823 -7.78136 8.6783
head -0.0549242 -3.63564 3.34108
rclavicle 3.36443e-014 -2.54444e-014
rhumerus 72.8847 15.1527 11.4642
rradius 39.5231
rwrist -64.9883
rhand -47.0473 -9.49957
rfingers 7.12502
rthumb -19.7527 -38.5159
lclavicle 3.36443e-014 -2.54444e-014
lhumerus 73.9274 -21.113 -43.4491
lradius 30.7713
lwrist 34.8335
lhand -40.9682 21.1488
lfingers 7.12502
lthumb -13.901 50.6641
rfemur -26.1559 -11.7698 31.0232
rtibia 88.517
rfoot -40.1793 -10.0624
rtoes -3.1041
lfemur -27.7899 1.73934 -10.3164
ltibia 93.2242
lfoot -40.5892 -4.67497
ltoes -14.9292
40
root -1.39471 13.4679 2.2204 165.128 -2.1077 -170.899
lowerback 23.1271 -1.1847 5.62337
upperback 5.80231 -1.33897 2.4544
thorax -6.51658 -1.25529 -0.102615
lowerneck -6.11442 -6.43658 -4.24808
upperneck -5.42793 -7.75682 8.83885
head -0.105794 -3.62179 3.41114
rclavicle -5.2181e-016 -5.54609e-014
rhumerus 72.6852 15.1415 10.6273
rradius 39.2667
rwrist -64.1877
rhand -46.9052 -9.50402
rfingers 7.12502
rthumb -19.6162 -38.5344
lclavicle -5.2181e-016 -5.54609e-014
lhumerus 73.797 -20.9169 -43.871
lradius 30.8951
lwrist 35.2748
lhand -41.1621 21.4183
lfingers 7.12502
lthumb -14.0878 50.9208
rfemur -27.0612 -11.6835 31.2483
rtibia 90.5248
rfoot -40.8613 -10.604
rtoes -3.43402
lfemur -28.7256 1.93523 -10.2061
ltibia 95.3665
lfoot -41.27 -4.72892
ltoes -15.2944
41
root -1.40186 13.287 2.21053 165.025 -2.07682 -170.81
lowerback 23.4214 -1.18991 5.73117
upperback 5.81969 -1.31801 2.491
thorax -6.64627 -1.25776 -0.119672
lowerneck -6.04034 -6.43714 -4.29113
upperneck -5.56217 -7.73923 8.94438
head -0.155897 -3.61216 3.46103
rclavicle -6.75868e-015 5.96354e-015
rhumerus 72.5258 15.149 9.83598
rradius 39.01
rwrist -63.3491
rhand -46.7496 -9.57252
rfingers 7.12502
rthumb -19.4665 -38.6181
lclavicle -6.75868e-015 5.96354e-015
lhumerus 73.612 -20.7453 -44.1136
lradius 30.9947
lwrist 35.634
lhand -41.2898 21.5299
lfingers 7.12502
lthumb -14.2109 51.0238
rfemur -27.9355 -11.5597 31.4955
rtibia 92.5207
rfoot -41.5121 -11.1961
rtoes -3.76654
lfemur -29.6378 2.1315 -10.1016
ltibia 97.499
lfoot -41.9551 -4.74429
ltoes -15.7398
42
root -1.40891 13.1054 2.19882 164.926 -2.0252 -170.749
lowerback 23.6909 -1.18025 5.81809
upperback 5.84881 -1.28587 2.51545
thorax -6.74953 -1.25431 -0.142633
lowerneck -6.01192 -6.44313 -4.31385
upperneck -5.67273 -7.73011 9.03262
head -0.191724 -3.60563 3.49904
rclavicle -1.09332e-014 2.38542e-015
rhumerus 72.3589 15.1389 9.15442
rradius 38.7894
rwrist -62.6007
rhand -46.617 -9.71116
rfingers 7.12502
rthumb -19.3391 -38.7695
lclavicle -1.09332e-014 2.38542e-015
lhumerus 73.4284 -20.5662 -44.2662
lradius 31.0444
lwrist 35.9366
lhand -41.3483 21.5442
lfingers 7.12502
lthumb -14.2673 51.0341
rfemur -28.8094 -11.3741 31.7423
rtibia 94.5185
rfoot -42.1413 -11.8601
rtoes -4.22767
lfemur -30.5233 2.38041 -10.0243
ltibia 99.6093
lfoot -42.6489 -4.70138
ltoes -16.4378
43
root -1.41631 12.9228 2.18725 164.84 -1.99857 -170.674
lowerback 23.9375 -1.18326 5.92289
upperback 5.87653 -1.2661 2.54165
thorax -6.84294 -1.25654 -0.171058
lowerneck -6.03021 -6.44792 -4.29545
upperneck -5.75627 -7.72308 9.07538
head -0.214653 -3.59966 3.51166
rclavicle 9.59136e-015 -5.96354e-015
rhumerus 72.2655 15.1 8.88724
rradius 38.6754
rwrist -62.2774
rhand -46.6112 -9.82836
rfingers 7.12502
rthumb -19.3335 -38.8873
lclavicle 9.59136e-015 -5.96354e-015
lhumerus 73.2224 -20.4118 -44.2486
lradius 31.0632
lwrist 36.1191
lhand -41.3737 21.4822
lfingers 7.12502
lthumb -14.2918 50.9703
rfemur -29.7023 -11.1968 32.0132
rtibia 96.5167
rfoot -42.7583 -12.5225
rtoes -4.58957
lfemur -31.4317 2.61457 -9.93224
ltibia 101.705
lfoot -43.3012 -4.65158
ltoes -17.1237
